<svg width="16" height="16" viewBox="0 0 16 16" fill="none" xmlns="http://www.w3.org/2000/svg">
    <path d="M6.05 9.50039V4.15039C6.05 4.15039 6.05 4.15039 7.85 4.15039C9.65 4.15039 9.65 5.95039 9.65 5.95039C9.65 5.95039 9.65 7.75039 7.85 7.75039C6.6 7.75039 5.3 7.75039 4.75 7.75039" stroke="#0089FF" stroke-miterlimit="10" stroke-linecap="round" stroke-linejoin="round"/>
    <path d="M5.9 9.50049H4.75" stroke="#606580" stroke-miterlimit="10" stroke-linecap="round" stroke-linejoin="round"/>
    <path d="M3 12.7002C2.8 12.5002 2.6 12.3002 2.4 12.0502C1.55 10.9502 1 9.5502 1 8.0002C1 4.3502 3.95 1.4502 7.55 1.4502C10.5 1.4502 13 3.4002 13.8 6.0502" stroke="#0089FF" stroke-miterlimit="10" stroke-linecap="round" stroke-linejoin="round"/>
    <path d="M4.75 14.5504L8.15 10.0504L11.55 12.8504L14.35 8.90039" stroke="#0089FF" stroke-miterlimit="10" stroke-linecap="round" stroke-linejoin="round"/>
    <path d="M13.0996 8.7502L14.6996 8.4502L14.9996 10.0002" stroke="#0089FF" stroke-miterlimit="10" stroke-linecap="round" stroke-linejoin="round"/>
</svg>
