<svg width="16" height="16" viewBox="0 0 16 16" fill="none" xmlns="http://www.w3.org/2000/svg">
<path d="M5.39961 15V10.55H1.09961V15" stroke="#8C99B2" stroke-miterlimit="10" stroke-linecap="round" stroke-linejoin="round"/>
<path d="M6.19941 2.25H5.49941C4.64941 2.25 3.89941 2.95 3.89941 3.85V8.25" stroke="#8C99B2" stroke-miterlimit="10" stroke-linecap="round" stroke-linejoin="round"/>
<path d="M11.0996 2.25H7.84961" stroke="#8C99B2" stroke-miterlimit="10" stroke-linecap="round" stroke-linejoin="round"/>
<path d="M8.09961 13.25H13.3496C14.1996 13.25 14.9496 12.55 14.9496 11.65V3.85C14.9496 3 14.2496 2.25 13.3496 2.25H12.6496" stroke="#8C99B2" stroke-miterlimit="10" stroke-linecap="round" stroke-linejoin="round"/>
<path d="M14.8994 6H3.89941" stroke="#8C99B2" stroke-miterlimit="10" stroke-linecap="round" stroke-linejoin="round"/>
<path d="M6.9998 1C6.5998 1 6.2998 1.3 6.2998 1.7V3.05C6.2998 3.45 6.5998 3.75 6.9998 3.75C7.3998 3.75 7.6998 3.45 7.6998 3.05V1.7C7.6498 1.3 7.3498 1 6.9998 1Z" stroke="#8C99B2" stroke-miterlimit="10" stroke-linecap="round" stroke-linejoin="round"/>
<path d="M11.8499 1C11.4499 1 11.1499 1.3 11.1499 1.7V3.05C11.1499 3.45 11.4499 3.75 11.8499 3.75C12.2499 3.75 12.5499 3.45 12.5499 3.05V1.7C12.5499 1.3 12.2499 1 11.8499 1Z" stroke="#8C99B2" stroke-miterlimit="10" stroke-linecap="round" stroke-linejoin="round"/>
</svg>
