<svg width="16" height="16" viewBox="0 0 16 16" fill="none" xmlns="http://www.w3.org/2000/svg">
<path d="M1.75 9.50005V6.75005H4.1L5.3 5.55005H6.85V9.40005" stroke="#8C99B2" stroke-miterlimit="10" stroke-linecap="round" stroke-linejoin="round"/>
<path d="M6.84995 9.5H0.949951V11.05H6.84995" stroke="#8C99B2" stroke-miterlimit="10" stroke-linecap="round" stroke-linejoin="round"/>
<path d="M3.74993 1.25H2.54993V6.75H3.74993V1.25Z" stroke="#8C99B2" stroke-miterlimit="10" stroke-linecap="round" stroke-linejoin="round"/>
<path d="M6.09998 5.54995V2.44995H9.19998V3.59995" stroke="#8C99B2" stroke-miterlimit="10" stroke-linecap="round" stroke-linejoin="round"/>
<path d="M8.04993 7.89998V4.69998C8.04993 4.09998 8.54993 3.59998 9.14993 3.59998H9.29993C9.89993 3.59998 10.3999 4.09998 10.3999 4.69998V4.74998" stroke="#8C99B2" stroke-miterlimit="10" stroke-linecap="round" stroke-linejoin="round"/>
<path d="M14.9999 11.55C14.7999 8.79998 12.1499 6.59998 12.1499 6.59998C12.1499 6.59998 9.49993 8.79998 9.29993 11.55C9.29993 11.65 9.29993 11.75 9.29993 11.85C9.29993 13.45 10.5999 14.7 12.1499 14.7C13.6999 14.7 14.9999 13.4 14.9999 11.85C15.0499 11.8 15.0499 11.65 14.9999 11.55Z" stroke="#8C99B2" stroke-miterlimit="10" stroke-linecap="round" stroke-linejoin="round"/>
<path d="M11 11.5C11 12.3 11.65 12.95 12.45 12.95" stroke="#8C99B2" stroke-miterlimit="10" stroke-linecap="round" stroke-linejoin="round"/>
</svg>
