<svg width="16" height="16" viewBox="0 0 16 16" fill="none" xmlns="http://www.w3.org/2000/svg">
<path d="M6.05 9.50002V4.15002C6.05 4.15002 6.05 4.15002 7.85 4.15002C9.65 4.15002 9.65 5.95002 9.65 5.95002C9.65 5.95002 9.65 7.75002 7.85 7.75002C6.6 7.75002 5.3 7.75002 4.75 7.75002" stroke="#0089FF" stroke-miterlimit="10" stroke-linecap="round" stroke-linejoin="round"/>
<path d="M5.9 9.5H4.75" stroke="#0089FF" stroke-miterlimit="10" stroke-linecap="round" stroke-linejoin="round"/>
<path d="M3 12.7C2.8 12.5 2.6 12.3 2.4 12.05C1.55 10.95 1 9.55001 1 8.00001C1 4.35001 3.95 1.45001 7.55 1.45001C10.5 1.45001 13 3.40001 13.8 6.05001" stroke="#0089FF" stroke-miterlimit="10" stroke-linecap="round" stroke-linejoin="round"/>
<path d="M4.75 14.55L8.15 10.05L11.55 12.85L14.35 8.90002" stroke="#0089FF" stroke-miterlimit="10" stroke-linecap="round" stroke-linejoin="round"/>
<path d="M13.1001 8.75001L14.7001 8.45001L15.0001 10" stroke="#0089FF" stroke-miterlimit="10" stroke-linecap="round" stroke-linejoin="round"/>
</svg>
