<svg width="75" height="36" viewBox="0 0 75 36" fill="none" xmlns="http://www.w3.org/2000/svg">
<path d="M61.3094 21.8628C61.2418 21.8656 61.1744 21.8549 61.1109 21.8315C61.0475 21.808 60.9893 21.7722 60.9396 21.7261C60.8899 21.68 60.8497 21.6245 60.8214 21.5628C60.7931 21.5011 60.7772 21.4343 60.7745 21.3664V12.8861C60.8064 12.7737 60.8739 12.6749 60.9667 12.6045C61.0595 12.5341 61.1726 12.496 61.2888 12.496C61.405 12.496 61.5181 12.5341 61.6109 12.6045C61.7037 12.6749 61.7712 12.7737 61.8031 12.8861V21.3974C61.7977 21.5328 61.7398 21.6606 61.6417 21.7534C61.5436 21.8462 61.4132 21.8967 61.2785 21.8938L61.3094 21.8628ZM62.3071 10.8901H60.3117C58.6248 10.8901 58.5322 12.2553 58.5322 13.1343V21.2009C58.5322 22.08 58.6248 23.4451 60.3117 23.4451H62.2968C63.9734 23.4451 64.0762 22.08 64.0762 21.2009V13.1343C64.0762 12.2553 63.9734 10.8901 62.2968 10.8901" fill="#0089FF"/>
<path d="M24.8877 10.8901H29.4648V12.4518H27.2843V23.4451H24.8877V10.8901Z" fill="#0089FF"/>
<path d="M29.8154 23.4451H32.1606L32.3869 20.1047H33.5286L33.7446 23.4451H36.1514L34.8451 10.8901H31.0703L29.8154 23.4451ZM32.4794 18.7603L32.8909 12.4724H33.0657L33.4771 18.7603H32.4794Z" fill="#0089FF"/>
<path d="M39.5358 19.0498V21.4181C39.5315 21.4701 39.5379 21.5223 39.5545 21.5717C39.5711 21.6211 39.5975 21.6665 39.6322 21.7052C39.6669 21.744 39.709 21.7752 39.7561 21.7969C39.8032 21.8187 39.8542 21.8306 39.9061 21.8318C40.0106 21.8264 40.109 21.7802 40.1801 21.7029C40.2512 21.6256 40.2894 21.5234 40.2866 21.4181V18.4914C40.2866 18.0984 40.2146 17.6744 39.3198 17.6744H38.3529V16.2886H39.3815C40.0603 16.2886 40.3072 16.1231 40.3072 15.3578V12.8551C40.3086 12.8035 40.2998 12.7521 40.2814 12.7039C40.263 12.6557 40.2354 12.6116 40.2 12.5741C40.1647 12.5367 40.1223 12.5066 40.0754 12.4856C40.0285 12.4646 39.978 12.4531 39.9266 12.4518C39.8753 12.4516 39.8245 12.4621 39.7774 12.4827C39.7304 12.5034 39.6881 12.5336 39.6532 12.5715C39.6184 12.6095 39.5918 12.6543 39.5751 12.7031C39.5585 12.7519 39.5521 12.8036 39.5563 12.8551V14.9235H37.1803V13.1343C37.1803 12.2553 37.2832 10.8901 38.9598 10.8901H40.9552C42.6318 10.8901 42.7346 12.2553 42.7346 13.1343V15.1406C42.765 15.3656 42.7444 15.5946 42.6746 15.8105C42.6047 16.0264 42.4873 16.2237 42.3311 16.3877C42.175 16.5517 41.984 16.6782 41.7725 16.7577C41.561 16.8372 41.3344 16.8678 41.1095 16.847V16.9711C41.3362 16.9419 41.5666 16.9666 41.7821 17.0431C41.9976 17.1197 42.1922 17.2461 42.3502 17.4121C42.5083 17.578 42.6255 17.779 42.6922 17.9988C42.759 18.2186 42.7735 18.4511 42.7346 18.6775V21.2009C42.7346 22.08 42.6318 23.4451 40.9552 23.4451H38.9083C37.2318 23.4451 37.1289 22.08 37.1289 21.2009V19.0498H39.5358Z" fill="#0089FF"/>
<path d="M44.2666 10.8901H49.8209V23.4451H47.5786V12.4518H46.4986V23.4451H44.2666V10.8901Z" fill="#0089FF"/>
<path d="M51.5801 23.4451H53.9767V19.1739H55.3447C57.0315 19.1739 57.2989 17.8192 57.2989 16.9298V13.1343C57.2989 12.2553 57.0315 10.8901 55.3447 10.8901H51.5801V23.4451ZM53.9767 17.7985V12.4518H54.6041C54.8715 12.4518 55.0566 12.6793 55.0566 13.0723V17.209C55.0566 17.602 54.8715 17.8398 54.6041 17.8398L53.9767 17.7985Z" fill="#0089FF"/>
<path d="M71.7405 10.8901H74.8674V23.4451H72.4605V15.575H72.3782L71.1439 23.4451H69.2205L67.9862 15.575H67.9039V23.4451H65.4971V10.8901H68.6136L70.1771 19.7117L71.7405 10.8901Z" fill="#0089FF"/>
<path d="M19.7654 12.162C19.7494 13.3122 19.6255 14.4584 19.3951 15.5851C19.4418 13.9545 19.3038 12.3238 18.9837 10.7245C18.5691 8.89946 17.919 7.13675 17.0499 5.48117C16.189 7.13353 15.5492 8.89311 15.1471 10.7141C14.8322 12.3424 14.684 13.9989 14.7048 15.6575C14.443 14.0862 14.3362 12.4927 14.3859 10.9003C14.4702 9.43967 14.7011 7.99135 15.0751 6.57741C15.5542 4.91573 16.2166 3.31313 17.0499 1.79948C17.9001 3.27107 18.5701 4.84063 19.0454 6.47399C19.5469 8.32719 19.7892 10.2416 19.7654 12.162ZM17.0602 21.9143C16.4036 20.634 16.0515 19.218 16.0317 17.7776C16.0342 16.3515 16.3875 14.9481 17.0602 13.6926C17.666 14.9083 17.9996 16.2426 18.0374 17.6018C18.0636 19.1004 17.7096 20.5811 17.0088 21.904L17.0602 21.9143ZM19.9299 6.49467C19.3374 4.17613 18.349 1.97861 17.0088 0C15.8534 1.75795 14.9464 3.66877 14.3139 5.67767C13.5425 8.33075 13.3116 11.1131 13.6351 13.8581C13.8834 15.6551 14.3462 17.4156 15.0134 19.1014C15.5584 20.3867 16.2487 21.6047 17.0705 22.7313C18.8245 20.1954 19.9592 17.2794 20.3825 14.22C20.7747 11.6438 20.6347 9.01402 19.9711 6.49467" fill="#0089FF"/>
<path d="M12.4118 23.4451V27.3957C13.0712 26.7344 13.9645 26.3631 14.8958 26.3631C15.8271 26.3631 16.7204 26.7344 17.3798 27.3957C17.7073 27.7208 17.9673 28.1081 18.1447 28.535C18.3222 28.962 18.4136 29.4201 18.4136 29.8829C18.4136 30.3456 18.3222 30.8037 18.1447 31.2307C17.9673 31.6577 17.7073 32.0449 17.3798 32.3701C16.0614 33.6894 14.277 34.43 12.4169 34.43C10.5569 34.43 8.7725 33.6894 7.45408 32.3701C6.3037 31.2201 5.58807 29.7028 5.43037 28.0794C5.27267 26.4561 5.68277 24.8282 6.59008 23.4761C6.84089 23.1016 7.13051 22.7549 7.45408 22.4419C8.10551 21.7847 8.87985 21.2635 9.7325 20.9085C10.5851 20.5536 11.4992 20.3717 12.4221 20.3736V10.9521C10.358 10.9578 8.32764 11.4791 6.51357 12.4692C4.6995 13.4593 3.15858 14.8872 2.02935 16.6244C0.900111 18.3617 0.217956 20.3539 0.0442097 22.4219C-0.129537 24.4899 0.210571 26.5689 1.03396 28.472C1.85735 30.3751 3.1382 32.0426 4.76137 33.3246C6.38454 34.6067 8.29914 35.4631 10.333 35.8168C12.367 36.1705 14.4564 36.0105 16.4136 35.3511C18.3707 34.6917 20.1342 33.5536 21.5455 32.0391V23.4451H12.4118Z" fill="#0089FF"/>
<path d="M72.6237 33.0318C72.6237 34.2211 72.0786 34.4383 70.7003 34.4383H69.4351V28.9882H70.7003V31.0565H70.9163C72.1608 31.0565 72.6237 31.3564 72.6237 32.4423V33.0318ZM62.05 30.012H61.0934V34.4383H59.8797V30.012H58.8511V28.9778H62.05V30.012ZM52.2991 32.494C52.2991 33.6006 51.7437 33.9005 50.4888 33.9005V34.4383H49.2648V33.9005C48.01 33.9005 47.4443 33.6006 47.4443 32.494V30.7876C47.4443 29.6811 47.9894 29.3915 49.2648 29.3915V28.9882H50.4888V29.3915C51.7643 29.3915 52.2991 29.6811 52.2991 30.7876V32.494ZM40.8203 30.012H39.082V31.0462H40.6351V32.0804H39.082V33.3628H40.8203V34.3969H37.7346V28.9778H40.8203V30.012ZM30.3083 34.4383H29.0431V32.0494H28.3951V34.4383H27.1197V28.9882H28.3951V31.0565H29.0431V28.9882H30.3083V34.4383ZM74.866 27.623H24.8877V35.9999H74.866V27.623ZM48.6786 30.7256V32.4734C48.6786 32.794 48.7814 32.8664 49.0591 32.8664H49.2648V30.3533H49.0591C48.7814 30.3533 48.6786 30.436 48.6786 30.7566V30.7256ZM70.9883 32.0494H70.7003V33.4765H70.9883C71.266 33.4765 71.3483 33.4041 71.3483 33.0939V32.432C71.3483 32.1217 71.266 32.0494 70.9883 32.0494ZM50.6843 30.3533H50.4888V32.8974H50.6843C50.9723 32.8974 51.0751 32.8146 51.0751 32.494V30.7463C51.0751 30.4257 50.9723 30.3533 50.6843 30.3533Z" fill="#0089FF"/>
</svg>
